<?xml version="1.0" encoding="UTF-8"?>
<svg id="OBJECTS" xmlns="http://www.w3.org/2000/svg" viewBox="0 0 500 500">
  <defs>
    <style>
      .cls-1, .cls-2 {
        fill: none;
      }

      .cls-3 {
        fill: #e3a645;
      }

      .cls-4 {
        fill: #d0665b;
      }

      .cls-5, .cls-6 {
        fill: #434043;
      }

      .cls-7 {
        fill: #9acce5;
      }

      .cls-6 {
        font-family: AnnaiMN-Regular, 'Annai MN';
        font-size: 39.13px;
      }

      .cls-2 {
        stroke: #434043;
        stroke-linecap: round;
        stroke-linejoin: round;
        stroke-width: .77px;
      }
    </style>
  </defs>
  <g>
    <path class="cls-1" d="M149.02,229.44c1.29,2.43,2.54,4.95,3.79,7.46,.67,1.34,1.34,2.68,2.01,4.01h1.83c-1.87-3.62-3.78-7.69-5.55-11.47h-2.09Z"/>
    <path class="cls-1" d="M211.39,245.48c.03-.13,.06-.26,.08-.39,.07-.35,.13-.71,.19-1.1h-4.41c-.14,.58-.27,1-.41,1.23-1.42,2.37-36.84,7.67-42.44,6.24-1.68-.43-3.82-3.41-6.1-7.48h-1.89c3.49,6.55,7.04,11.87,10.57,11.87,13.44,0,39.91-4.52,43.48-8.1,.38-.38,.68-1.2,.92-2.29Z"/>
    <path class="cls-1" d="M207.8,240.9h4.24c.17-1.84,.3-3.82,.42-5.64,.12-1.92,.25-3.89,.42-5.83h-3.88c-.33,3.93-.74,8.29-1.19,11.47Z"/>
    <path class="cls-3" d="M151.1,229.44c1.77,3.77,3.67,7.85,5.55,11.47h51.15c.45-3.18,.87-7.54,1.19-11.47h-57.89Z"/>
    <path class="cls-4" d="M209.57,218.65h-62.17c.69,1.36,1.45,2.92,2.25,4.6h59.59c.14-1.84,.25-3.46,.33-4.6Z"/>
    <path class="cls-7" d="M164.41,252.67c5.59,1.42,41.01-3.87,42.44-6.24,.14-.23,.28-.66,.41-1.23h-48.95c2.28,4.06,4.42,7.05,6.1,7.48Z"/>
    <path class="cls-5" d="M221.02,213.42c-5.1,0-6.95,5.86-7.83,12.92h-65.87c-4.59-8.08-9.7-14.45-16.36-14.45-.85,0-1.54,.69-1.54,1.54s.69,1.54,1.54,1.54c4.75,0,8.95,4.96,12.78,11.36h-.57c-.85,0-1.54,.69-1.54,1.54s.69,1.54,1.54,1.54h2.33c1.57,2.87,3.08,5.9,4.54,8.83,.44,.89,.88,1.77,1.32,2.63h-.55c-.85,0-1.54,.69-1.54,1.54s.69,1.54,1.54,1.54h2.12c4.39,8.47,8.58,14.96,14.06,14.96,9.51,0,29.35-2.58,39.72-6.04-7.62,6.57-22.58,9.51-34.3,11.81-11.33,2.23-16.81,3.44-17.37,6.67-.17,.99,.09,1.91,.76,2.67,1.76,1.99,6.27,2.31,8.93,2.31v1.87c-1.52,.61-2.59,2.09-2.59,3.83,0,2.28,1.85,4.14,4.14,4.14s4.14-1.85,4.14-4.14c0-1.74-1.07-3.22-2.59-3.83v-1.91h34.06v1.91c-1.52,.61-2.59,2.09-2.59,3.83,0,2.28,1.85,4.14,4.14,4.14s4.14-1.85,4.14-4.14c0-1.74-1.07-3.22-2.59-3.83v-1.91h8.07c.85,0,1.54-.69,1.54-1.54s-.69-1.54-1.54-1.54h-9.61s0,0,0,0,0,0,0,0h-37.13s0,0,0,0,0,0,0,0h-.06c-4.1,.2-7.8-.54-8.13-1.29,.7-1.42,8.93-3.04,14.94-4.22,16.4-3.22,38.79-7.63,41.46-21.92,.02-.08,.03-.16,.05-.24,0-.05,.02-.1,.03-.15,0,0,0-.01,0-.02,.09-.45,.17-.92,.24-1.43h1.35c.85,0,1.54-.69,1.54-1.54s-.69-1.54-1.54-1.54h-1c.15-1.62,.27-3.43,.4-5.44,.12-1.9,.25-3.97,.44-6.02h1.08c.85,0,1.54-.69,1.54-1.54s-.69-1.54-1.54-1.54h-.74c.69-5.34,1.96-9.84,4.71-9.84,.85,0,1.54-.69,1.54-1.54s-.69-1.54-1.54-1.54Zm-64.61,30.56h55.25c-.06,.39-.12,.75-.19,1.1-.02,.13-.06,.26-.08,.39-.24,1.09-.54,1.91-.92,2.29-3.57,3.57-30.04,8.1-43.48,8.1-3.53,0-7.08-5.32-10.57-11.87Zm56.04-8.72c-.12,1.82-.24,3.79-.42,5.64h-57.22c-.67-1.32-1.34-2.67-2.01-4.01-1.25-2.51-2.5-5.03-3.79-7.46h63.85c-.17,1.93-.3,3.9-.42,5.83Z"/>
  </g>
  <g>
    <text class="cls-6" transform="translate(238.87 258.35)"><tspan x="0" y="0">MYSHOP</tspan></text>
    <line class="cls-2" x1="231.1" y1="223.25" x2="231.1" y2="271.73"/>
  </g>
</svg>